<?xml version="1.0" encoding="UTF-8"?>
<svg id="Layer_1" data-name="Layer 1" xmlns="http://www.w3.org/2000/svg" viewBox="0 0 5000 5000">
  <defs>
    <style>
      .cls-1 {
        letter-spacing: .65em;
      }

      .cls-2, .cls-3 {
        stroke-width: 0px;
      }

      .cls-3 {
        fill: #fea20f;
      }

      .cls-4 {
        letter-spacing: .72em;
      }

      .cls-5 {
        font-family: MyriadConceptRoman-BoldSemiExt, 'Myriad Variable Concept';
        font-size: 492.18px;
        font-variation-settings: 'wght' 700, 'wdth' 110;
        font-weight: 700;
      }

      .cls-6 {
        letter-spacing: .73em;
      }
    </style>
  </defs>
  <path class="cls-2" d="M3513.89,2258.65c-10.98-.6-17.1,6.46-22.9,14.08-16.44,21.63-32.66,43.48-49.27,64.93-48.31,62.38-96.77,124.6-145.16,186.9-63.1,81.24-126.11,162.57-189.34,243.67-10.46,13.41-21.36,26.48-32.98,38.55-8.12,8.43-17.45,15.55-26.86,22.11-27.29,19.02-55.08,18.81-82.97,1.31-17.51-10.99-32.98-24.97-47.07-41.1-41.61-47.67-81.86-96.81-120.68-147.45-68.78-89.73-136.96-180.06-205.47-270.07-25.26-33.19-50.69-66.2-76.13-99.21-4.17-5.41-8.1-11.42-15.16-13.32-7.36,5.32-8.29,13.63-8.26,22.57.25,66.01.42,132.03.64,198.04.33,100.04.72,200.08.98,300.12.02,7.29-.22,14.74-1.52,21.84-1.99,10.86-8.63,17.07-18.34,18.27-4.03.5-8.14.22-12.22.2-30.29-.14-60.58-.32-90.87-.46-4.66-.02-9.35.45-13.97.04-11.07-1-16.71-6.98-18.64-19.77-.69-4.56-.74-9.29-.73-13.94.46-225.43.96-450.86,1.42-676.29.04-21.46,1.43-42.61,8.04-62.98,10.2-31.45,29.17-52.47,56.91-63.03,37.78-14.38,72.49-7.77,103.39,21.19,8.52,7.98,16.47,16.97,23.74,26.45,33.08,43.07,65.89,86.43,98.68,129.79,41.56,54.96,83.02,110.02,124.51,165.04,61.67,81.79,123.27,163.64,185.03,245.33,11.05,14.61,22.53,28.83,34.27,42.72,4.8,5.68,10.56,10.48,16.36,14.86,8.1,6.12,16.8,5.82,24.59-.61,6.09-5.03,11.93-10.76,16.97-17.13,18.38-23.23,36.38-46.85,54.51-70.34,79.84-103.47,159.64-206.97,239.5-310.41,48.23-62.46,96.47-124.91,144.87-187.2,10.44-13.44,20.75-27.28,32.61-38.96,30.12-29.66,64.76-35.96,101.2-18.59,31.62,15.08,50.36,44.12,58.99,81.8,3.88,16.92,4.59,34.22,4.57,51.61-.06,50.69-.18,101.38-.11,152.07.21,168.74.5,337.48.71,506.22,0,7.32.03,14.74-.99,21.93-1.87,13.14-8.67,19.83-20.11,20.68-4.05.3-8.17.15-12.22-.24-26.2-2.53-52.38-2.23-78.59-.18-5.8.45-11.68.71-17.46.15-11.6-1.12-19.25-9.27-21.19-22.51-.86-5.88-.95-11.95-.94-17.94.31-165.4.69-330.8.98-496.21.01-7.85,1.17-16.01-3.32-24.57Z"/>
  <path class="cls-2" d="M1461.78,2465.95c-3.71-16.76-10.83-31.37-23.46-43.21-4.75-4.45-9.06-9.36-14.54-15.08,5.44-5.43,9.84-10.25,14.67-14.57,17.73-15.86,26.73-36.28,30.84-59.13,1.41-7.84,2.29-15.92,2.19-23.87-.55-43.34-.16-86.74-2.62-129.98-3.12-54.74-28.56-97.6-74.69-127.91-30.6-20.11-64.71-31.3-99.97-39.2-39.19-8.78-79.05-11.57-119.19-11.6-288.74-.22-577.47-.58-866.21-.92-12-.01-24.01-.34-36.01-.23-18.54.17-21.5,3.26-22.1,22.42-.13,4-.05,8-.05,12,.02,23.34.06,46.68.05,70.02-.02,221.39-.06,442.77-.02,664.16,0,7.31.42,14.66,1.26,21.91.78,6.75,5.23,10.9,11.84,11.68,6.59.78,13.3.79,19.95.76,64.01-.3,128.03-.95,192.04-.98,223.39-.11,446.77-.06,670.16.03,47.43.02,94.65-2.76,141.45-10.55,38.45-6.4,75.28-17.72,108.06-39.69,38.49-25.79,62.99-61.04,69.98-107.2,3.19-21.05,5.26-42.36,6.35-63.63,2-38.8-1.57-77.23-9.98-115.23ZM1294.99,2592.11c-5.2,16.16-15.31,27.69-31.52,33.75-3.17,1.19-6.37,2.19-9.6,3.03-1.61.42-3.23.8-4.86,1.15-8.12,1.72-16.39,2.51-24.73,2.71-6.83.16-13.66.28-20.49.42-20.49.42-40.97.76-61.46.78-51.31.07-102.62.08-153.93.08-51.31,0-102.62-.02-153.93-.02v.41c-120.61,0-241.22,0-361.83,0-8.49,0-17,.41-25.49.34-2.83-.02-5.65-.1-8.47-.26-3.92-.22-7.46-.71-10.64-1.51-3.18-.79-5.99-1.89-8.45-3.3-1.63-.95-3.11-2.04-4.43-3.28-.66-.62-1.28-1.28-1.86-1.98-1.16-1.4-2.16-2.96-3-4.68-2.11-4.3-3.24-9.64-3.41-16.13-.34-12.96-.34-25.96.05-38.95.39-12.99,1.17-25.97,2.38-38.87.27-2.9.72-5.63,1.35-8.21,1.56-6.44,4.21-11.86,7.89-16.3,2.94-3.55,6.55-6.47,10.78-8.76,5.29-2.87,11.56-4.75,18.75-5.68,3.95-.51,7.92-.94,11.89-1.3,7.95-.71,15.95-1.13,23.95-1.33,4-.1,7.99-.14,11.98-.14h0c109.95.14,219.89.52,329.84,1.04,61.97.29,123.94.61,185.91.98,61.97.37,123.94.78,185.91,1.25,14.59.11,29.16,2.1,43.73,3.33,2.64.22,5.26.88,7.84,1.54,10.28,2.62,18.99,6.67,26.09,12.2,9.46,7.37,16.05,17.38,19.65,30.13.9,3.19,1.62,6.55,2.14,10.08.3,2,.57,3.99.8,5.99.24,1.99.43,3.99.59,5.98.94,11.94.33,23.8-3.44,35.51ZM1298.87,2241.27c-.83,28.18-13.64,51.11-36.47,63.96-5.27,2.96-11.08,5.39-17.39,7.22-13.85,4.01-28.49,5.44-42.98,7.09-2.07.24-4.14.48-6.2.73-3.94.49-7.94.58-11.94.56-4.01-.03-8.03-.17-12.03-.17-58.31,0-116.62,0-174.92,0-58.31,0-116.61,0-174.92,0v.47h0c-123.94,0-247.89.03-371.83-.07-3.64,0-7.32-.07-10.98-.31-1.83-.12-3.65-.29-5.46-.51-1.81-.22-3.61-.51-5.38-.86-11.52-2.29-18.87-9.42-20.67-21.46-.12-.82-.26-1.65-.4-2.47-.28-1.65-.56-3.3-.7-4.96-.07-.83-.11-1.65-.1-2.47.28-23.31.72-46.61,1.18-69.92.05-2.66.36-5.33.79-7.95.88-5.47,2.3-10.39,4.28-14.74,1.97-4.35,4.5-8.14,7.6-11.35,1.55-1.61,3.24-3.07,5.08-4.39,5.51-3.96,12.32-6.61,20.47-7.94,2.95-.48,5.91-.89,8.89-1.23,2.98-.35,5.96-.63,8.95-.87,5.98-.47,11.99-.75,17.97-.93,9.32-.28,18.65-.38,27.98-.42,4.66-.02,9.33-.02,14-.01,4.67,0,9.33.01,13.99.01,52.14,0,104.29.01,156.43.02,104.29,0,208.58.05,312.86.12,52.14.03,104.29.04,156.43.1,4.66,0,9.31.09,13.97.25,13.97.45,27.94,1.45,41.89,2.37,10.56.7,20.66,3.2,30.36,6.91,3.88,1.48,7.69,3.16,11.44,4.99,1.88.91,3.74,1.87,5.58,2.85,21.94,11.72,33,30.14,32.25,55.38Z"/>
  <path class="cls-3" d="M1389.61,2008.53c10.61-.42,16.54-.87,22.48-.87,284.67-.02,569.35,0,854.02.05,9.35,0,18.73-.06,28.05.64,9.99.75,14.38,7.16,10.87,16.8-3.44,9.46-6.57,18.67-8.41,28.78-4.16,22.79-4.9,45.28-2.86,68.31.93,10.45-1.53,21.45-3.85,31.89-2.52,11.34-8.4,15.73-19.75,16.53-7.32.52-14.69.3-22.04.3-86.2-.03-172.41-.08-258.61-.1-6.68,0-13.39-.21-20.04.36-17.14,1.47-27.92,12.63-29.04,30.13-.51,8.06-.3,16.17-.3,24.26.02,153.72.25,307.45-.08,461.17-.07,33.68-2.08,67.36-3.36,101.03-.15,3.98-.89,8.07-2.14,11.84-2.3,6.9-6.92,11.49-14.57,11.89-4.67.25-9.35.33-14.02.33-37.42,0-74.84-.03-112.26-.05-2,0-4.01-.05-6.01,0-17.59.39-25.03-1.48-28.03-25.67-1.16-9.33-1.33-18.83-1.25-28.25.59-74.14,1.56-148.28,1.99-222.42.58-99.78.78-199.56,1.14-299.35.05-13.49.04-26.83-4.9-39.84-7.07-18.59-14.58-24.73-33.87-25.35-6.01-.19-12.03-.08-18.04-.08-52.79,0-105.58.03-158.37.03-5.35,0-10.7-.23-16.04-.08-11.48.33-18.91-5.32-23.34-15.61-6.1-14.18-11.89-28.5-18.33-42.52-13.69-29.81-32.48-55.63-59.08-75.18-10.22-7.51-19.73-16.05-31.83-20.68-2.06-.79-3.43-3.39-8.1-8.28Z"/>
  <text class="cls-5" transform="translate(259.51 3311.09) scale(.95 1)"><tspan class="cls-4" x="0" y="0">T</tspan><tspan class="cls-6" x="649.18" y="0">R</tspan><tspan class="cls-1" x="1320.99" y="0">A</tspan><tspan class="cls-4" x="1995.27" y="0">VEL</tspan></text>
  <g>
    <path class="cls-3" d="M3697.58,1761.92l89.52-161.61s9.77-18.88,26.64-21.39l928.62-13.06-1044.78,196.06Z"/>
    <path class="cls-2" d="M3284.38,1872.17l1453.32-283.28s16.91-6.59,10.06,14.6l-951.69,484.22s-17.5,10.79-35.68-18.87l-89.85-128.87s-35.71-35.51-50.68-25.03l-335.48-42.77Z"/>
  </g>
</svg>